<svg width="255" height="169" viewBox="0 0 255 169" fill="none" xmlns="http://www.w3.org/2000/svg">
<g opacity="0.4">
<path fill-rule="evenodd" clip-rule="evenodd" d="M12 46.5C17.799 46.5 22.5 41.799 22.5 36C22.5 30.201 17.799 25.5 12 25.5C6.20101 25.5 1.5 30.201 1.5 36C1.5 41.799 6.20101 46.5 12 46.5Z" stroke="#22B1E5" stroke-width="3"/>
<path fill-rule="evenodd" clip-rule="evenodd" d="M202 22.5C207.799 22.5 212.5 17.799 212.5 12C212.5 6.20101 207.799 1.5 202 1.5C196.201 1.5 191.5 6.20101 191.5 12C191.5 17.799 196.201 22.5 202 22.5Z" stroke="#22B1E5" stroke-width="3"/>
<path fill-rule="evenodd" clip-rule="evenodd" d="M153 104.5C158.799 104.5 163.5 99.799 163.5 94C163.5 88.201 158.799 83.5 153 83.5C147.201 83.5 142.5 88.201 142.5 94C142.5 99.799 147.201 104.5 153 104.5Z" stroke="#22B1E5" stroke-width="3"/>
<path fill-rule="evenodd" clip-rule="evenodd" d="M100.562 37.3716C100.583 37.4776 100.639 37.5737 100.72 37.6455C100.927 37.8287 101.243 37.8097 101.426 37.6031L114.428 22.9407C114.479 22.8827 114.516 22.8134 114.536 22.7384C114.608 22.4717 114.45 22.1975 114.183 22.1261L97.2523 17.5895C97.1773 17.5694 97.0987 17.5671 97.0226 17.5826C96.7521 17.638 96.5777 17.9022 96.633 18.1727L100.562 37.3716Z" stroke="#22B1E5" stroke-width="3"/>
<path fill-rule="evenodd" clip-rule="evenodd" d="M121.628 141.562C121.522 141.583 121.426 141.639 121.355 141.72C121.171 141.927 121.19 142.243 121.397 142.426L136.059 155.428C136.117 155.479 136.187 155.516 136.262 155.536C136.528 155.608 136.802 155.45 136.874 155.183L141.41 138.252C141.431 138.177 141.433 138.099 141.417 138.023C141.362 137.752 141.098 137.578 140.827 137.633L121.628 141.562Z" stroke="#22B1E5" stroke-width="3"/>
<path fill-rule="evenodd" clip-rule="evenodd" d="M17.9031 120.129C17.7951 120.122 17.6879 120.151 17.5976 120.211C17.3672 120.363 17.3037 120.673 17.4558 120.903L28.2534 137.257C28.2962 137.322 28.3535 137.376 28.4207 137.415C28.6598 137.553 28.9656 137.471 29.1037 137.232L37.8676 122.052C37.9065 121.985 37.9291 121.91 37.9337 121.832C37.9503 121.556 37.7402 121.32 37.4646 121.303L17.9031 120.129Z" stroke="#22B1E5" stroke-width="3"/>
<path fill-rule="evenodd" clip-rule="evenodd" d="M229.189 43.2275C229.224 43.1249 229.224 43.0139 229.189 42.9113C229.102 42.6493 228.819 42.5078 228.557 42.5951L209.966 48.7921C209.892 48.8167 209.825 48.858 209.77 48.9129C209.575 49.1082 209.575 49.4248 209.77 49.62L222.164 62.0141C222.219 62.069 222.286 62.1103 222.36 62.1349C222.622 62.2222 222.905 62.0806 222.992 61.8186L229.189 43.2275Z" stroke="#22B1E5" stroke-width="3"/>
<path fill-rule="evenodd" clip-rule="evenodd" d="M45.7809 69.8954C44.8243 69.3431 44.4965 68.1199 45.0488 67.1633L58.5488 43.7807C59.1011 42.8241 60.3243 42.4963 61.2809 43.0486L70.8071 48.5486C71.7637 49.1009 72.0915 50.3241 71.5392 51.2807L58.0392 74.6633C57.4869 75.6199 56.2637 75.9477 55.3071 75.3954L45.7809 69.8954Z" stroke="#22B1E5" stroke-width="3"/>
<path fill-rule="evenodd" clip-rule="evenodd" d="M226.781 135.895C225.824 135.343 225.497 134.12 226.049 133.163L239.549 109.781C240.101 108.824 241.324 108.496 242.281 109.049L251.807 114.549C252.764 115.101 253.091 116.324 252.539 117.281L239.039 140.663C238.487 141.62 237.264 141.948 236.307 141.395L226.781 135.895Z" stroke="#22B1E5" stroke-width="3"/>
<path fill-rule="evenodd" clip-rule="evenodd" d="M165.281 59.3954C164.324 59.9477 163.101 59.6199 162.549 58.6633L149.049 35.2807C148.497 34.3241 148.824 33.1009 149.781 32.5486L159.307 27.0486C160.264 26.4963 161.487 26.8241 162.039 27.7807L175.539 51.1633C176.091 52.1199 175.764 53.3431 174.807 53.8954L165.281 59.3954Z" stroke="#22B1E5" stroke-width="3"/>
<path fill-rule="evenodd" clip-rule="evenodd" d="M99.3651 116.071C98.584 116.852 97.3177 116.852 96.5366 116.071L77.4448 96.9794C76.6637 96.1983 76.6637 94.932 77.4448 94.1509L85.2229 86.3728C86.004 85.5917 87.2703 85.5917 88.0514 86.3728L107.143 105.465C107.924 106.246 107.924 107.512 107.143 108.293L99.3651 116.071Z" stroke="#22B1E5" stroke-width="3"/>
<path d="M123 67C126.314 67 129 64.3137 129 61C129 57.6863 126.314 55 123 55C119.686 55 117 57.6863 117 61C117 64.3137 119.686 67 123 67Z" fill="#22B1E5"/>
<path d="M25 95C28.3137 95 31 92.3137 31 89C31 85.6863 28.3137 83 25 83C21.6863 83 19 85.6863 19 89C19 92.3137 21.6863 95 25 95Z" fill="#22B1E5"/>
<path d="M64.7172 165.267C64.1543 166.528 64.72 168.006 65.9808 168.569C67.2415 169.132 68.7199 168.566 69.2828 167.305L67 166.286L64.7172 165.267ZM80.5728 142.019C81.1357 140.758 80.57 139.28 79.3093 138.717C78.0485 138.154 76.5701 138.72 76.0072 139.981L78.29 141L80.5728 142.019ZM176.717 148.267C176.154 149.528 176.72 151.006 177.981 151.569C179.242 152.132 180.72 151.566 181.283 150.305L179 149.286L176.717 148.267ZM192.573 125.019C193.136 123.758 192.57 122.28 191.309 121.717C190.049 121.154 188.57 121.72 188.007 122.981L190.29 124L192.573 125.019ZM67 166.286L69.2828 167.305L80.5728 142.019L78.29 141L76.0072 139.981L64.7172 165.267L67 166.286ZM179 149.286L181.283 150.305L192.573 125.019L190.29 124L188.007 122.981L176.717 148.267L179 149.286Z" fill="#22B1E5"/>
<path d="M55 19C55 17.3431 56.3431 16 58 16H64C65.6569 16 67 17.3431 67 19V25C67 26.6569 65.6569 28 64 28H58C56.3431 28 55 26.6569 55 25V19Z" fill="#22B1E5"/>
<path d="M203 92C203 90.3431 204.343 89 206 89H212C213.657 89 215 90.3431 215 92V98C215 99.6569 213.657 101 212 101H206C204.343 101 203 99.6569 203 98V92Z" fill="#22B1E5"/>
</g>
</svg>
