<svg width="128" height="36" viewBox="0 0 128 36" fill="none" xmlns="http://www.w3.org/2000/svg">
<path d="M121.517 35.904C118.957 35.904 116.973 35.216 115.565 33.84C114.157 32.464 113.453 30.496 113.453 27.936V4.608H118.061V27.744C118.061 29.12 118.397 30.176 119.069 30.912C119.773 31.648 120.765 32.016 122.045 32.016C123.485 32.016 124.685 31.616 125.645 30.816L127.085 34.128C126.381 34.736 125.533 35.184 124.541 35.472C123.581 35.76 122.573 35.904 121.517 35.904ZM109.133 13.968V10.176H125.357V13.968H109.133Z" fill="white"/>
<path d="M93.2085 35.904C90.6485 35.904 88.3765 35.344 86.3925 34.224C84.4085 33.104 82.8405 31.568 81.6885 29.616C80.5365 27.632 79.9605 25.392 79.9605 22.896C79.9605 20.368 80.5365 18.128 81.6885 16.176C82.8405 14.224 84.4085 12.704 86.3925 11.616C88.3765 10.496 90.6485 9.936 93.2085 9.936C95.7365 9.936 97.9925 10.496 99.9765 11.616C101.992 12.704 103.56 14.224 104.68 16.176C105.832 18.096 106.409 20.336 106.409 22.896C106.409 25.424 105.832 27.664 104.68 29.616C103.56 31.568 101.992 33.104 99.9765 34.224C97.9925 35.344 95.7365 35.904 93.2085 35.904ZM93.2085 31.872C94.8405 31.872 96.2965 31.504 97.5765 30.768C98.8885 30.032 99.9125 28.992 100.648 27.648C101.384 26.272 101.752 24.688 101.752 22.896C101.752 21.072 101.384 19.504 100.648 18.192C99.9125 16.848 98.8885 15.808 97.5765 15.072C96.2965 14.336 94.8405 13.968 93.2085 13.968C91.5765 13.968 90.1205 14.336 88.8405 15.072C87.5605 15.808 86.5365 16.848 85.7685 18.192C85.0005 19.504 84.6165 21.072 84.6165 22.896C84.6165 24.688 85.0005 26.272 85.7685 27.648C86.5365 28.992 87.5605 30.032 88.8405 30.768C90.1205 31.504 91.5765 31.872 93.2085 31.872Z" fill="white"/>
<path d="M63.0818 35.904C60.9058 35.904 58.9377 35.424 57.1777 34.464C55.4497 33.472 54.0738 32.016 53.0498 30.096C52.0578 28.176 51.5617 25.776 51.5617 22.896C51.5617 20.016 52.0738 17.616 53.0978 15.696C54.1538 13.776 55.5458 12.336 57.2738 11.376C59.0338 10.416 60.9698 9.936 63.0818 9.936C65.5778 9.936 67.7858 10.48 69.7058 11.568C71.6258 12.656 73.1458 14.176 74.2658 16.128C75.3858 18.048 75.9458 20.304 75.9458 22.896C75.9458 25.488 75.3858 27.76 74.2658 29.712C73.1458 31.664 71.6258 33.184 69.7058 34.272C67.7858 35.36 65.5778 35.904 63.0818 35.904ZM49.5938 35.616V0H54.2018V16.944L53.7217 22.848L54.0098 28.752V35.616H49.5938ZM62.6978 31.872C64.3298 31.872 65.7858 31.504 67.0658 30.768C68.3778 30.032 69.4018 28.992 70.1378 27.648C70.9058 26.272 71.2898 24.688 71.2898 22.896C71.2898 21.072 70.9058 19.504 70.1378 18.192C69.4018 16.848 68.3778 15.808 67.0658 15.072C65.7858 14.336 64.3298 13.968 62.6978 13.968C61.0977 13.968 59.6418 14.336 58.3298 15.072C57.0498 15.808 56.0258 16.848 55.2578 18.192C54.5218 19.504 54.1538 21.072 54.1538 22.896C54.1538 24.688 54.5218 26.272 55.2578 27.648C56.0258 28.992 57.0498 30.032 58.3298 30.768C59.6418 31.504 61.0977 31.872 62.6978 31.872Z" fill="white"/>
<path d="M30.021 35.904C27.461 35.904 25.189 35.344 23.205 34.224C21.221 33.104 19.653 31.568 18.501 29.616C17.349 27.632 16.773 25.392 16.773 22.896C16.773 20.368 17.349 18.128 18.501 16.176C19.653 14.224 21.221 12.704 23.205 11.616C25.189 10.496 27.461 9.936 30.021 9.936C32.549 9.936 34.805 10.496 36.789 11.616C38.805 12.704 40.373 14.224 41.493 16.176C42.645 18.096 43.221 20.336 43.221 22.896C43.221 25.424 42.645 27.664 41.493 29.616C40.373 31.568 38.805 33.104 36.789 34.224C34.805 35.344 32.549 35.904 30.021 35.904ZM30.021 31.872C31.653 31.872 33.109 31.504 34.389 30.768C35.701 30.032 36.725 28.992 37.461 27.648C38.197 26.272 38.565 24.688 38.565 22.896C38.565 21.072 38.197 19.504 37.461 18.192C36.725 16.848 35.701 15.808 34.389 15.072C33.109 14.336 31.653 13.968 30.021 13.968C28.389 13.968 26.933 14.336 25.653 15.072C24.373 15.808 23.349 16.848 22.581 18.192C21.813 19.504 21.429 21.072 21.429 22.896C21.429 24.688 21.813 26.272 22.581 27.648C23.349 28.992 24.373 30.032 25.653 30.768C26.933 31.504 28.389 31.872 30.021 31.872Z" fill="white"/>
<path d="M0 35.616V10.176H4.416V17.088L3.984 15.36C4.688 13.6 5.872 12.256 7.536 11.328C9.2 10.4 11.248 9.936 13.68 9.936V14.4C13.488 14.368 13.296 14.352 13.104 14.352C12.944 14.352 12.784 14.352 12.624 14.352C10.16 14.352 8.208 15.088 6.768 16.56C5.328 18.032 4.608 20.16 4.608 22.944V35.616H0Z" fill="white"/>
</svg>
